# xmcd
#
# Track frame offsets:
#	150
#	17955
#	35545
#	49820
#	66375
#	81897
#	102202
#	120450
#	134912
#	148827
#	165192
#	186972
#
# Disc length: 2753 seconds
#
# Revision: 3
# Processed by: cddbd v1.4PL0 Copyright (c) Steve Scherf et al.
# Submitted via: CDmax 1.8
#
DISCID=ad0abf0c
DTITLE=Tom Waits - Closing Time
DYEAR=1973
DGENRE=Rock
TTITLE0=Ol' 55
TTITLE1=I Hope That I Don't Fall In Love With You
TTITLE2=Virginia Avenue
TTITLE3=Old Shoes (& Picture Postcards)
TTITLE4=Midnight Lullaby
TTITLE5=Martha
TTITLE6=Rosie
TTITLE7=Lonely
TTITLE8=Ice Cream Man
TTITLE9=Little Trip To Heaven (On The Wings Of Your Love)
TTITLE10=Grapefruit Moon
TTITLE11=Closing Time
EXTD=
EXTT0=
EXTT1=
EXTT2=
EXTT3=
EXTT4=
EXTT5=
EXTT6=
EXTT7=
EXTT8=
EXTT9=
EXTT10=
EXTT11=
PLAYORDER=
